<svg width="24" height="24" viewBox="0 0 24 24" fill="none" xmlns="http://www.w3.org/2000/svg">
<path d="M17.7541 13.9999C18.9961 13.9999 20.0029 15.0068 20.0029 16.2488V16.8242C20.0029 17.7185 19.6833 18.5833 19.1018 19.2627C17.5324 21.0962 15.1453 22.0011 11.9999 22.0011C8.85401 22.0011 6.468 21.0959 4.9017 19.2617C4.32194 18.5828 4.00342 17.7193 4.00342 16.8265V16.2488C4.00342 15.0068 5.01027 13.9999 6.25229 13.9999H17.7541ZM17.7541 15.4999H6.25229C5.8387 15.4999 5.50342 15.8352 5.50342 16.2488V16.8265C5.50342 17.3622 5.69453 17.8802 6.04239 18.2876C7.29569 19.7553 9.26157 20.5011 11.9999 20.5011C14.7382 20.5011 16.7058 19.7553 17.9623 18.2873C18.3112 17.8797 18.5029 17.3608 18.5029 16.8242V16.2488C18.5029 15.8352 18.1676 15.4999 17.7541 15.4999ZM11.9999 2.00464C14.7613 2.00464 16.9999 4.24321 16.9999 7.00464C16.9999 9.76606 14.7613 12.0046 11.9999 12.0046C9.23845 12.0046 6.99988 9.76606 6.99988 7.00464C6.99988 4.24321 9.23845 2.00464 11.9999 2.00464ZM11.9999 3.50464C10.0669 3.50464 8.49988 5.07164 8.49988 7.00464C8.49988 8.93764 10.0669 10.5046 11.9999 10.5046C13.9329 10.5046 15.4999 8.93764 15.4999 7.00464C15.4999 5.07164 13.9329 3.50464 11.9999 3.50464Z" fill="white"/>
</svg>
